<svg xmlns="http://www.w3.org/2000/svg" viewBox="0 0 100 100">
  <g transform="rotate(15,50,50)" stroke-linecap="round">
    <path d="M 50 50 m -35 0 a 35 35 0 1 0 70 0 a 35 35 0 1 0 -70 0 Z
             M 50 50 m -25 0 a 25 25 0 0 1 50 0 a 25 25 0 0 1 -50 0 Z"
          fill="white" stroke="black" stroke-width="2" />
    <g fill="none">
      <line x1="80" y1="50" x2="70" y2="42" stroke-width="12" stroke="black" />
      <line x1="80" y1="50" x2="70" y2="42" stroke-width="8" stroke="white" />
      <path d="M 80 50 a 30 30 0 0 0 -30 -30" stroke-width="8" stroke="white" />
    </g>
    <g fill="none">
      <line x1="20" y1="50" x2="30" y2="58" stroke-width="12" stroke="black" />
      <line x1="20" y1="50" x2="30" y2="58" stroke-width="8" stroke="white" />
      <path d="M 20 50 a 30 30 0 0 0 30 30" stroke-width="8" stroke="white"/>
    </g>
  </g>
</svg>
