<svg xmlns="http://www.w3.org/2000/svg" viewBox="0 0 100 100">
  <path d="M 50 0
           C 45.55 10.91, 42.86 18.06, 37.91 28.65
           C 40.94 31.87, 44.67 35.61, 50.73 39.84
           C 44.22 37.16, 39.78 34.49, 36.46 31.70
           C 30.12 44.93, 20.17 63.77, 0 100
           C 15.85 90.85, 28.14 85.22, 39.59 83.06
           C 39.10 80.95, 38.82 78.66, 38.84 76.27
           L 38.86 75.78
           C 39.11 65.62, 44.39 57.80, 50.65 58.33
           C 56.91 58.86, 61.78 67.54, 61.52 77.70
           C 61.48 79.61, 61.27 81.44, 60.89 83.14
           C 72.21 85.36, 84.37 90.98, 100 100
           C 96.92 94.32, 94.15 89.22, 91.52 84.35
           C 87.39 81.14, 83.08 76.97, 74.27 72.44
           C 80.32 74.02, 84.67 75.83, 88.05 77.86
           C 61.33 28.11, 59.16 21.50, 50 0 Z" fill="white" />
</svg>
