<?xml version="1.0" encoding="utf-8"?>
<svg viewBox="0 0 100 100" xmlns="http://www.w3.org/2000/svg">
  <path d="M 50 19.1 C 47.25 25.84 45.59 30.26 42.53 36.81 C 44.4 38.8 46.71 41.11 50.45 43.72 C 46.43 42.06 43.68 40.41 41.63 38.69 C 37.71 46.87 31.57 58.51 19.1 80.9 C 28.9 75.25 36.49 71.77 43.57 70.43 C 43.26 69.13 43.09 67.71 43.1 66.23 L 43.12 65.93 C 43.27 59.65 46.53 54.82 50.4 55.15 C 54.27 55.48 57.28 60.84 57.12 67.12 C 57.09 68.3 56.96 69.43 56.73 70.48 C 63.73 71.85 71.24 75.33 80.9 80.9 C 79 77.39 77.28 74.24 75.66 71.23 C 73.11 69.24 70.44 66.67 65 63.87 C 68.74 64.84 71.43 65.96 73.51 67.22 C 57 36.47 55.66 32.39 50 19.1 Z" fill="white"/>
</svg>