<?xml version="1.0" encoding="utf-8"?>
<svg viewBox="0 0 128 128" xmlns="http://www.w3.org/2000/svg">
  <path d="M 64 14 C 59.55 24.91 56.86 32.06 51.91 42.65 C 54.94 45.87 58.67 49.61 64.73 53.84 C 58.22 51.16 53.78 48.49 50.46 45.7 C 44.12 58.93 34.17 77.77 14 114 C 29.85 104.85 42.14 99.22 53.59 97.06 C 53.1 94.95 52.82 92.66 52.84 90.27 L 52.86 89.78 C 53.11 79.62 58.39 71.8 64.65 72.33 C 70.91 72.86 75.78 81.54 75.52 91.7 C 75.48 93.61 75.27 95.44 74.89 97.14 C 86.21 99.36 98.37 104.98 114 114 C 110.92 108.32 108.15 103.22 105.52 98.35 C 101.39 95.14 97.08 90.97 88.27 86.44 C 94.32 88.02 98.67 89.83 102.05 91.86 C 75.33 42.11 73.16 35.5 64 14 Z" fill="white"/>
</svg>