<?xml version="1.0" encoding="utf-8"?>
<svg viewBox="0 0 128 128" xmlns="http://www.w3.org/2000/svg">
  <g fill="white">
    <path d="M 71.81 66.83 C 70.16 66.86 72.13 67.69 74.29 68.02 C 74.89 67.55 75.43 67.08 75.91 66.62 C 74.56 66.95 73.19 66.96 71.81 66.83"/>
    <path d="M 80.71 64.62 C 81.69 63.26 82.41 61.76 82.67 60.22 C 82.44 61.32 81.85 62.27 81.29 63.27 C 78.19 65.22 80.99 62.11 81.28 60.93 C 77.95 65.13 80.83 63.45 80.71 64.62"/>
    <path d="M 83.99 56.08 C 84.19 53.09 83.4 54.03 83.14 55.17 C 83.45 55.33 83.69 57.28 83.99 56.08"/>
    <path d="M 65.53 15.29 C 66.41 15.45 67.44 15.57 67.3 15.78 C 68.26 15.57 68.48 15.37 65.53 15.29"/>
    <path d="M 67.3 15.78 L 66.67 15.91 L 67.25 15.86 L 67.3 15.78"/>
    <path d="M 94.87 57.21 C 94.97 59.89 94.09 61.19 93.29 63.49 L 91.86 64.2 C 90.69 66.48 91.97 65.65 91.13 67.46 C 89.3 69.09 85.58 72.55 84.39 72.86 C 83.52 72.85 84.98 71.84 85.17 71.44 C 82.72 73.13 83.21 73.97 79.46 74.99 L 79.35 74.75 C 70.11 79.09 57.28 70.48 57.45 58.73 C 57.35 59.48 57.17 59.29 56.96 59.59 C 56.49 53.54 59.76 47.47 65.27 44.99 C 70.66 42.32 76.98 43.42 80.85 47.02 C 78.72 44.24 74.5 41.29 69.5 41.57 C 64.59 41.65 60.01 44.76 58.47 48.14 C 55.96 49.72 55.67 54.24 54.58 55.07 C 53.1 65.89 57.35 70.56 64.52 76.06 C 65.65 76.83 64.84 76.94 64.99 77.52 C 62.61 76.4 60.43 74.72 58.63 72.65 C 59.58 74.05 60.61 75.41 61.94 76.47 C 59.69 75.71 56.69 71.02 55.81 70.83 C 59.69 77.77 71.54 83 77.74 80.41 C 74.87 80.51 71.22 80.46 68 79.27 C 66.64 78.58 64.8 77.13 65.13 76.86 C 73.6 80.02 82.34 79.26 89.67 73.38 C 91.53 71.93 93.57 69.46 94.16 69.43 C 93.27 70.76 94.31 70.07 93.63 71.25 C 95.48 68.25 92.82 70.03 95.55 66.07 L 96.55 67.46 C 96.18 64.98 99.64 61.96 99.29 58.02 C 100.08 56.82 100.18 59.32 99.33 62.08 C 100.5 59.02 99.64 58.52 99.94 55.99 C 100.27 56.84 100.69 57.75 100.91 58.64 C 100.15 55.68 101.69 53.65 102.08 51.93 C 101.7 51.76 100.9 53.24 100.72 49.73 C 100.74 48.21 101.14 48.94 101.29 48.56 C 100.99 48.39 100.21 47.22 99.73 44.99 C 100.08 44.46 100.66 46.35 101.13 46.43 C 100.83 44.65 100.3 43.29 100.28 41.93 C 98.91 39.06 99.8 42.31 98.68 40.69 C 97.22 36.13 99.9 39.64 100.08 37.56 C 102.29 40.77 103.56 45.75 104.14 47.81 C 103.69 45.3 102.98 42.87 102.11 40.51 C 102.78 40.79 101.02 35.34 102.98 38.95 C 100.89 31.25 94.02 24.05 87.71 20.68 C 88.48 21.38 89.46 22.27 89.11 22.41 C 85.96 20.54 86.52 20.39 86.07 19.6 C 83.51 18.56 83.34 19.69 81.64 19.61 C 76.82 17.05 75.89 17.32 71.45 15.72 L 71.66 16.66 C 68.46 15.6 67.93 17.06 64.48 16.66 C 64.27 16.5 65.59 16.07 66.67 15.91 C 63.58 16.32 63.73 15.3 60.7 16.02 C 61.45 15.5 62.24 15.16 63.03 14.71 C 60.51 14.86 57.02 16.18 58.1 14.98 C 53.99 16.82 46.69 19.39 42.59 23.23 L 42.46 22.37 C 40.59 24.62 34.28 29.1 33.78 32.02 L 33.28 32.13 C 32.3 33.79 31.67 35.66 30.89 37.36 C 29.62 39.54 29.02 38.2 29.2 38.54 C 26.69 43.63 25.44 47.91 24.37 51.42 C 25.13 52.57 24.38 58.33 24.67 62.95 C 23.41 85.72 40.66 107.84 59.52 112.95 C 62.28 113.94 66.39 113.9 69.89 114 C 65.76 112.82 65.23 113.38 61.21 111.97 C 58.31 110.61 57.68 109.05 55.62 107.27 L 56.44 108.71 C 52.41 107.28 54.09 106.94 50.82 105.9 L 51.69 104.77 C 50.38 104.67 48.23 102.57 47.64 101.41 L 46.22 101.47 C 44.5 99.35 43.59 97.83 43.65 96.64 L 43.19 97.47 C 42.67 96.57 36.88 89.53 39.88 91.17 C 39.33 90.66 38.59 90.34 37.78 88.88 L 38.39 88.18 C 36.95 86.32 35.73 83.94 35.83 83.14 C 36.6 84.18 37.13 84.38 37.66 84.56 C 34.01 75.5 33.81 84.06 31.04 75.34 L 31.63 75.29 C 31.18 74.62 30.91 73.89 30.55 73.17 L 30.8 70.63 C 28.17 67.59 30.07 57.72 30.44 52.3 C 30.71 50.09 32.64 47.75 34.11 44.07 L 33.21 43.92 C 34.92 40.94 42.97 31.94 46.7 32.41 C 48.51 30.14 46.34 32.4 45.99 31.83 C 49.96 27.72 51.21 28.92 53.88 28.19 C 56.77 26.47 51.4 28.85 52.77 27.53 C 57.77 26.26 56.31 24.63 62.82 23.99 C 63.51 24.38 61.23 24.59 60.66 25.1 C 64.82 23.06 73.82 23.52 79.67 26.23 C 86.45 29.4 94.08 38.77 94.38 47.59 L 94.72 47.68 C 94.55 51.19 95.26 55.24 94.03 58.97 L 94.87 57.21"/>
    <path d="M 53.73 69.11 L 53.49 70.27 C 54.58 71.75 55.45 73.35 56.84 74.51 C 55.84 72.56 55.09 71.75 53.73 69.11"/>
    <path d="M 56.3 69.01 C 55.72 68.37 55.38 67.6 55 66.84 C 55.37 68.18 56.11 69.34 56.81 70.51 L 56.3 69.01"/>
    <path d="M 101.86 59.11 L 101.61 59.72 C 101.17 62.89 100.2 66.02 98.73 68.93 C 100.36 65.86 101.41 62.51 101.86 59.11"/>
    <path d="M 65.86 14.5 C 66.98 14.09 68.61 14.27 69.8 14 C 68.25 14.13 66.71 14.21 65.19 14.4 L 65.86 14.5"/>
    <path d="M 26.52 35.41 C 26.78 37.8 24.73 38.73 26.98 37.15 C 28.19 34.43 26.51 36.4 26.52 35.41"/>
    <path d="M 23.88 46.47 C 24.4 44.88 24.49 43.92 24.69 43 C 23.25 44.83 24.03 45.22 23.88 46.47"/>
  </g>
</svg>