<svg xmlns="http://www.w3.org/2000/svg" viewBox="0 0 100 100">
  <g fill="white">
    <path d="M 57.81 52.83
             C 56.16 52.86 58.13 53.69 60.29 54.02
             C 60.89 53.55 61.43 53.08 61.91 52.62
             C 60.56 52.95 59.19 52.96 57.81 52.83"/>
    <path d="M 66.71 50.62
             C 67.69 49.26 68.41 47.76 68.67 46.22
             C 68.44 47.32 67.85 48.27 67.29 49.27
             C 64.19 51.22 66.99 48.11 67.28 46.93
             C 63.95 51.13 66.83 49.45 66.71 50.62"/>
    <path d="M 69.99 42.08
             C 70.19 39.09 69.4 40.03 69.14 41.17
             C 69.45 41.33 69.69 43.28 69.99 42.08"/>
    <path d="M 51.53 1.29
             C 52.41 1.45 53.44 1.57 53.3 1.78
             C 54.26 1.57 54.48 1.37 51.53 1.29"/>
    <path d="M 53.3 1.78 L 52.67 1.91 L 53.25 1.86 L 53.3 1.78"/>
    <path d="M 80.87 43.21
             C 80.97 45.89 80.09 47.19 79.29 49.49 L 77.86 50.2
             C 76.69 52.48 77.97 51.65 77.13 53.46
             C 75.3 55.09 71.58 58.55 70.39 58.86
             C 69.52 58.85 70.98 57.84 71.17 57.44
             C 68.72 59.13 69.21 59.97 65.46 60.99 L 65.35 60.75
             C 56.11 65.09 43.28 56.48 43.45 44.73
             C 43.35 45.48 43.17 45.29 42.96 45.59
             C 42.49 39.54 45.76 33.47 51.27 30.99
             C 56.66 28.32 62.98 29.42 66.85 33.02
             C 64.72 30.24 60.5 27.29 55.5 27.57
             C 50.59 27.65 46.01 30.76 44.47 34.14
             C 41.96 35.72 41.67 40.24 40.58 41.07
             C 39.1 51.89 43.35 56.56 50.52 62.06
             C 51.65 62.83 50.84 62.94 50.99 63.52
             C 48.61 62.4 46.43 60.72 44.63 58.65
             C 45.58 60.05 46.61 61.41 47.94 62.47
             C 45.69 61.71 42.69 57.02 41.81 56.83
             C 45.69 63.77 57.54 69 63.74 66.41
             C 60.87 66.51 57.22 66.46 54 65.27
             C 52.64 64.58 50.8 63.13 51.13 62.86
             C 59.6 66.02 68.34 65.26 75.67 59.38
             C 77.53 57.93 79.57 55.46 80.16 55.43
             C 79.27 56.76 80.31 56.07 79.63 57.25
             C 81.48 54.25 78.82 56.03 81.55 52.07 L 82.55 53.46
             C 82.18 50.98 85.64 47.96 85.29 44.02
             C 86.08 42.82 86.18 45.32 85.33 48.08
             C 86.5 45.02 85.64 44.52 85.94 41.99
             C 86.27 42.84 86.69 43.75 86.91 44.64
             C 86.15 41.68 87.69 39.65 88.08 37.93
             C 87.7 37.76 86.9 39.24 86.72 35.73
             C 86.74 34.21 87.14 34.94 87.29 34.56
             C 86.99 34.39 86.21 33.22 85.73 30.99
             C 86.08 30.46 86.66 32.35 87.13 32.43
             C 86.83 30.65 86.3 29.29 86.28 27.93
             C 84.91 25.06 85.8 28.31 84.68 26.69
             C 83.22 22.13 85.9 25.64 86.08 23.56
             C 88.29 26.77 89.56 31.75 90.14 33.81
             C 89.69 31.3 88.98 28.87 88.11 26.51
             C 88.78 26.79 87.02 21.34 88.98 24.95
             C 86.89 17.25 80.02 10.05 73.71 6.68
             C 74.48 7.38 75.46 8.27 75.11 8.41
             C 71.96 6.54 72.52 6.39 72.07 5.6
             C 69.51 4.56 69.34 5.69 67.64 5.61
             C 62.82 3.05 61.89 3.32 57.45 1.72 L 57.66 2.66
             C 54.46 1.6 53.93 3.06 50.48 2.66
             C 50.27 2.5 51.59 2.07 52.67 1.91
             C 49.58 2.32 49.73 1.3 46.7 2.02
             C 47.45 1.5 48.24 1.16 49.03 0.71
             C 46.51 0.86 43.02 2.18 44.1 0.98
             C 39.99 2.82 32.69 5.39 28.59 9.23 L 28.46 8.37
             C 26.59 10.62 20.28 15.1 19.78 18.02 L 19.28 18.13
             C 18.3 19.79 17.67 21.66 16.89 23.36
             C 15.62 25.54 15.02 24.2 15.2 24.54
             C 12.69 29.63 11.44 33.91 10.37 37.42
             C 11.13 38.57 10.38 44.33 10.67 48.95
             C 9.41 71.72 26.66 93.84 45.52 98.95
             C 48.28 99.94 52.39 99.9 55.89 100
             C 51.76 98.82 51.23 99.38 47.21 97.97
             C 44.31 96.61 43.68 95.05 41.62 93.27 L 42.44 94.71
             C 38.41 93.28 40.09 92.94 36.82 91.9 L 37.69 90.77
             C 36.38 90.67 34.23 88.57 33.64 87.41 L 32.22 87.47
             C 30.5 85.35 29.59 83.83 29.65 82.64 L 29.19 83.47
             C 28.67 82.57 22.88 75.53 25.88 77.17
             C 25.33 76.66 24.59 76.34 23.78 74.88 L 24.39 74.18
             C 22.95 72.32 21.73 69.94 21.83 69.14
             C 22.6 70.18 23.13 70.38 23.66 70.56
             C 20.01 61.5 19.81 70.06 17.04 61.34 L 17.63 61.29
             C 17.18 60.62 16.91 59.89 16.55 59.17 L 16.8 56.63
             C 14.17 53.59 16.07 43.72 16.44 38.3
             C 16.71 36.09 18.64 33.75 20.11 30.07 L 19.21 29.92
             C 20.92 26.94 28.97 17.94 32.7 18.41
             C 34.51 16.14 32.34 18.4 31.99 17.83
             C 35.96 13.72 37.21 14.92 39.88 14.19
             C 42.77 12.47 37.4 14.85 38.77 13.53
             C 43.77 12.26 42.31 10.63 48.82 9.99
             C 49.51 10.38 47.23 10.59 46.66 11.1
             C 50.82 9.06 59.82 9.52 65.67 12.23
             C 72.45 15.4 80.08 24.77 80.38 33.59 L 80.72 33.68
             C 80.55 37.19 81.26 41.24 80.03 44.97 L 80.87 43.21"/>
    <path d="M 39.73 55.11 L 39.49 56.27
             C 40.58 57.75 41.45 59.35 42.84 60.51
             C 41.84 58.56 41.09 57.75 39.73 55.11"/>
    <path d="M 42.3 55.01
             C 41.72 54.37 41.38 53.6 41 52.84
             C 41.37 54.18 42.11 55.34 42.81 56.51 L 42.3 55.01"/>
    <path d="M 87.86 45.11 L 87.61 45.72
             C 87.17 48.89 86.2 52.02 84.73 54.93
             C 86.36 51.86 87.41 48.51 87.86 45.11"/>
    <path d="M 51.86 0.5
             C 52.98 0.09 54.61 0.27 55.8 0
             C 54.25 0.13 52.71 0.21 51.19 0.4 L 51.86 0.5"/>
    <path d="M 12.52 21.41
             C 12.78 23.8 10.73 24.73 12.98 23.15
             C 14.19 20.43 12.51 22.4 12.52 21.41"/>
    <path d="M 9.88 32.47
             C 10.4 30.88 10.49 29.92 10.69 29
             C 9.25 30.83 10.03 31.22 9.88 32.47"/>
  </g>
</svg>
