<?xml version="1.0" encoding="utf-8"?>
<svg viewBox="0 0 100 100" xmlns="http://www.w3.org/2000/svg">
  <g fill="white">
    <path d="M 54.87 51.75 C 53.85 51.77 55.07 52.28 56.4 52.48 C 56.77 52.19 57.11 51.9 57.4 51.62 C 56.57 51.82 55.72 51.83 54.87 51.75"/>
    <path d="M 60.37 50.38 C 60.98 49.54 61.42 48.62 61.58 47.66 C 61.44 48.34 61.08 48.93 60.73 49.55 C 58.81 50.75 60.54 48.83 60.72 48.1 C 58.67 50.7 60.44 49.66 60.37 50.38"/>
    <path d="M 62.4 45.11 C 62.52 43.26 62.03 43.84 61.87 44.54 C 62.06 44.64 62.21 45.85 62.4 45.11"/>
    <path d="M 50.99 19.9 C 51.53 20 52.17 20.07 52.08 20.2 C 52.68 20.07 52.81 19.95 50.99 19.9"/>
    <path d="M 52.08 20.2 L 51.69 20.28 L 52.05 20.25 L 52.08 20.2"/>
    <path d="M 69.12 45.8 C 69.18 47.46 68.64 48.26 68.15 49.68 L 67.26 50.12 C 66.54 51.53 67.33 51.02 66.81 52.14 C 65.68 53.15 63.38 55.28 62.65 55.48 C 62.11 55.47 63.01 54.85 63.13 54.6 C 61.61 55.64 61.92 56.16 59.6 56.79 L 59.53 56.64 C 53.82 59.33 45.89 54 46 46.74 C 45.93 47.21 45.82 47.09 45.69 47.27 C 45.4 43.54 47.42 39.78 50.83 38.25 C 54.16 36.6 58.07 37.28 60.46 39.51 C 59.14 37.79 56.53 35.97 53.44 36.14 C 50.41 36.19 47.58 38.11 46.63 40.2 C 45.08 41.17 44.9 43.97 44.22 44.48 C 43.31 51.17 45.93 54.05 50.37 57.45 C 51.06 57.93 50.56 58 50.66 58.36 C 49.19 57.66 47.84 56.62 46.73 55.35 C 47.31 56.21 47.95 57.05 48.77 57.71 C 47.38 57.24 45.53 54.34 44.98 54.22 C 47.38 58.51 54.7 61.74 58.54 60.14 C 56.76 60.2 54.51 60.17 52.52 59.44 C 51.68 59.01 50.54 58.11 50.74 57.95 C 55.98 59.9 61.38 59.43 65.91 55.8 C 67.06 54.9 68.32 53.37 68.68 53.36 C 68.13 54.18 68.78 53.75 68.36 54.48 C 69.5 52.63 67.85 53.73 69.54 51.28 L 70.16 52.14 C 69.93 50.61 72.07 48.74 71.85 46.3 C 72.34 45.56 72.4 47.11 71.88 48.81 C 72.6 46.92 72.07 46.61 72.25 45.05 C 72.46 45.58 72.72 46.14 72.85 46.69 C 72.38 44.86 73.34 43.6 73.58 42.54 C 73.34 42.44 72.85 43.35 72.74 41.18 C 72.75 40.24 73 40.69 73.09 40.46 C 72.9 40.35 72.42 39.63 72.13 38.25 C 72.34 37.92 72.7 39.09 72.99 39.14 C 72.81 38.04 72.48 37.2 72.47 36.36 C 71.62 34.59 72.17 36.6 71.48 35.59 C 70.57 32.78 72.23 34.95 72.34 33.66 C 73.71 35.64 74.49 38.72 74.85 39.99 C 74.57 38.44 74.13 36.94 73.6 35.48 C 74.01 35.66 72.92 32.29 74.13 34.52 C 72.84 29.76 68.6 25.31 64.7 23.23 C 65.17 23.66 65.78 24.21 65.56 24.3 C 63.62 23.14 63.96 23.05 63.68 22.56 C 62.1 21.92 62 22.62 60.95 22.57 C 57.97 20.98 57.39 21.15 54.65 20.16 L 54.78 20.74 C 52.8 20.09 52.47 20.99 50.34 20.74 C 50.21 20.65 51.03 20.38 51.69 20.28 C 49.78 20.53 49.88 19.9 48 20.35 C 48.47 20.03 48.96 19.82 49.44 19.54 C 47.89 19.63 45.73 20.45 46.4 19.71 C 43.86 20.84 39.35 22.43 36.81 24.8 L 36.73 24.27 C 35.58 25.66 31.68 28.43 31.37 30.24 L 31.06 30.3 C 30.45 31.33 30.06 32.49 29.58 33.54 C 28.8 34.88 28.43 34.06 28.54 34.27 C 26.99 37.41 26.21 40.06 25.55 42.23 C 26.02 42.94 25.56 46.5 25.74 49.35 C 24.96 63.42 35.62 77.09 47.28 80.25 C 48.98 80.86 51.52 80.84 53.68 80.9 C 51.13 80.17 50.8 80.52 48.32 79.65 C 46.53 78.8 46.14 77.84 44.87 76.74 L 45.37 77.63 C 42.88 76.75 43.92 76.54 41.9 75.89 L 42.44 75.2 C 41.63 75.13 40.3 73.84 39.93 73.12 L 39.06 73.16 C 37.99 71.85 37.43 70.91 37.47 70.17 L 37.18 70.68 C 36.86 70.13 33.28 65.78 35.14 66.79 C 34.8 66.48 34.34 66.28 33.84 65.38 L 34.22 64.94 C 33.33 63.79 32.57 62.32 32.63 61.83 C 33.11 62.47 33.44 62.59 33.77 62.71 C 31.51 57.11 31.39 62.4 29.67 57.01 L 30.04 56.98 C 29.76 56.56 29.59 56.11 29.37 55.67 L 29.53 54.1 C 27.9 52.22 29.08 46.12 29.3 42.77 C 29.47 41.4 30.66 39.96 31.57 37.68 L 31.02 37.59 C 32.07 35.75 37.05 30.19 39.35 30.48 C 40.47 29.07 39.13 30.47 38.91 30.12 C 41.37 27.58 42.14 28.32 43.79 27.87 C 45.58 26.81 42.26 28.28 43.1 27.46 C 46.19 26.68 45.29 25.67 49.31 25.27 C 49.74 25.51 48.33 25.64 47.98 25.96 C 50.55 24.7 56.11 24.98 59.73 26.66 C 63.92 28.62 68.63 34.41 68.82 39.86 L 69.03 39.91 C 68.92 42.08 69.36 44.59 68.6 46.89 L 69.12 45.8"/>
    <path d="M 43.7 53.16 L 43.55 53.87 C 44.22 54.79 44.76 55.78 45.62 56.5 C 45 55.29 44.54 54.79 43.7 53.16"/>
    <path d="M 45.29 53.1 C 44.93 52.7 44.72 52.22 44.48 51.76 C 44.71 52.58 45.17 53.3 45.6 54.02 L 45.29 53.1"/>
    <path d="M 73.44 46.98 L 73.29 47.35 C 73.02 49.31 72.42 51.25 71.51 53.05 C 72.51 51.15 73.16 49.08 73.44 46.98"/>
    <path d="M 51.19 19.41 C 51.89 19.16 52.89 19.27 53.63 19.1 C 52.67 19.18 51.72 19.23 50.78 19.35 L 51.19 19.41"/>
    <path d="M 26.88 32.33 C 27.04 33.81 25.78 34.38 27.17 33.41 C 27.91 31.73 26.88 32.94 26.88 32.33"/>
    <path d="M 25.25 39.17 C 25.57 38.18 25.63 37.59 25.75 37.02 C 24.86 38.15 25.34 38.39 25.25 39.17"/>
  </g>
</svg>