<?xml version="1.0" encoding="utf-8"?>
<svg viewBox="0 0 100 100" xmlns="http://www.w3.org/2000/svg">
  <path d="M 50 19.1 C 32.93 19.1 19.1 32.93 19.1 50 C 19.1 67.06 32.93 80.9 50 80.9 C 67.06 80.9 80.9 67.06 80.9 50 C 80.9 32.93 67.06 19.1 50 19.1 Z M 50 21.68 C 62.97 21.68 73.91 30.4 77.27 42.3 C 74.37 48.26 70.26 53.62 65.26 57.96 C 62.85 60.04 60.23 61.9 57.33 63.21 C 54.43 64.51 51.24 65.25 48.06 65.07 C 45.67 64.94 43.32 64.27 41.23 63.11 C 46.77 60.11 51.76 56.11 55.85 51.32 C 58.54 48.18 60.89 44.6 61.79 40.56 C 62.24 38.55 62.32 36.43 61.9 34.41 C 61.48 32.39 60.54 30.46 59.12 28.95 C 57.74 27.48 55.93 26.44 53.98 25.9 C 52.03 25.37 49.96 25.32 47.97 25.69 C 44 26.41 40.45 28.72 37.6 31.59 C 32.59 36.65 29.49 43.78 30.06 50.87 C 30.34 54.42 31.53 57.91 33.57 60.83 C 34.02 61.48 34.53 62.1 35.06 62.69 C 32.09 63.73 29.01 64.47 25.9 64.88 C 23.22 60.56 21.68 55.46 21.68 50 C 21.68 34.36 34.36 21.68 50 21.68 Z M 50.18 27.4 C 52.17 27.4 54.18 28.01 55.77 29.2 C 57.19 30.29 58.26 31.82 58.86 33.51 C 59.46 35.21 59.62 37.04 59.41 38.82 C 59 42.39 57.2 45.66 55.02 48.51 C 51.18 53.57 46.07 57.61 40.38 60.44 C 39.8 60.73 39.21 61.01 38.62 61.27 C 37.38 60.19 36.32 58.91 35.51 57.48 C 33.82 54.49 33.26 50.93 33.59 47.52 C 33.92 44.1 35.09 40.8 36.67 37.75 C 38.49 34.21 40.98 30.86 44.48 28.94 C 46.22 27.97 48.19 27.39 50.18 27.4 Z M 78.07 46.21 C 78.24 47.45 78.32 48.71 78.32 50 C 78.32 65.64 65.64 78.32 50 78.32 C 41.21 78.32 33.36 74.32 28.17 68.05 C 31.37 67.32 34.51 66.27 37.52 64.94 C 38.83 65.94 40.28 66.77 41.82 67.35 C 46.27 69.06 51.32 68.81 55.82 67.25 C 60.31 65.7 64.3 62.9 67.77 59.65 C 71.92 55.78 75.41 51.22 78.07 46.21 Z" fill="white"/>
</svg>