<svg xmlns="http://www.w3.org/2000/svg" viewBox="0 0 100 100" >
  <path d="M 50 0
           C 22.38 0 0 22.38 0 50
           C 0 77.61 22.38 100 50 100
           C 77.61 100 100 77.61 100 50
           C 100 22.38 77.61 0 50 0 Z
           M 50 4.17
           C 70.99 4.17 88.69 18.28 94.12 37.54
           C 89.44 47.18 82.79 55.86 74.69 62.88
           C 70.8 66.25 66.55 69.25 61.86 71.37
           C 57.17 73.48 52 74.68 46.86 74.39
           C 43 74.17 39.19 73.09 35.81 71.22
           C 44.77 66.36 52.85 59.89 59.47 52.13
           C 63.82 47.05 67.62 41.26 69.08 34.73
           C 69.81 31.47 69.94 28.05 69.25 24.78
           C 68.57 21.5 67.06 18.38 64.76 15.94
           C 62.53 13.56 59.59 11.87 56.44 11
           C 53.29 10.14 49.93 10.07 46.72 10.66
           C 40.29 11.83 34.55 15.57 29.94 20.21
           C 21.83 28.39 16.81 39.93 17.73 51.41
           C 18.19 57.15 20.11 62.8 23.41 67.52
           C 24.15 68.57 24.96 69.58 25.82 70.53
           C 21.02 72.21 16.04 73.41 11 74.08
           C 6.67 67.08 4.17 58.83 4.17 50
           C 4.17 24.69 24.69 4.17 50 4.17 Z
           M 50.29 13.43
           C 53.51 13.43 56.76 14.41 59.33 16.35
           C 61.64 18.1 63.36 20.59 64.33 23.32
           C 65.31 26.06 65.56 29.03 65.22 31.91
           C 64.56 37.68 61.65 42.97 58.13 47.59
           C 51.91 55.77 43.64 62.32 34.44 66.9
           C 33.49 67.37 32.54 67.82 31.58 68.24
           C 29.58 66.49 27.86 64.41 26.55 62.1
           C 23.82 57.26 22.92 51.51 23.45 45.98
           C 23.98 40.45 25.88 35.11 28.43 30.18
           C 31.38 24.45 35.41 19.03 41.06 15.92
           C 43.88 14.36 47.07 13.42 50.29 13.43 Z
           M 95.42 43.86 C 95.69 45.87 95.83 47.92 95.83 50
           C 95.83 75.31 75.31 95.83 50 95.83
           C 35.78 95.83 23.08 89.36 14.67 79.2
           C 19.86 78.02 24.93 76.33 29.8 74.18
           C 31.92 75.8 34.27 77.13 36.77 78.08
           C 43.96 80.84 52.13 80.44 59.41 77.92
           C 66.68 75.4 73.14 70.88 78.76 65.62
           C 85.47 59.35 91.12 51.97 95.42 43.86 Z"
        fill="white" />
</svg>
