<?xml version="1.0" encoding="utf-8"?>
<svg viewBox="0 0 128 128" xmlns="http://www.w3.org/2000/svg">
  <path d="M 64 14 C 36.38 14 14 36.38 14 64 C 14 91.61 36.38 114 64 114 C 91.61 114 114 91.61 114 64 C 114 36.38 91.61 14 64 14 Z M 64 18.17 C 84.99 18.17 102.69 32.28 108.12 51.54 C 103.44 61.18 96.79 69.86 88.69 76.88 C 84.8 80.25 80.55 83.25 75.86 85.37 C 71.17 87.48 66 88.68 60.86 88.39 C 57 88.17 53.19 87.09 49.81 85.22 C 58.77 80.36 66.85 73.89 73.47 66.13 C 77.82 61.05 81.62 55.26 83.08 48.73 C 83.81 45.47 83.94 42.05 83.25 38.78 C 82.57 35.5 81.06 32.38 78.76 29.94 C 76.53 27.56 73.59 25.87 70.44 25 C 67.29 24.14 63.93 24.07 60.72 24.66 C 54.29 25.83 48.55 29.57 43.94 34.21 C 35.83 42.39 30.81 53.93 31.73 65.41 C 32.19 71.15 34.11 76.8 37.41 81.52 C 38.15 82.57 38.96 83.58 39.82 84.53 C 35.02 86.21 30.04 87.41 25 88.08 C 20.67 81.08 18.17 72.83 18.17 64 C 18.17 38.69 38.69 18.17 64 18.17 Z M 64.29 27.43 C 67.51 27.43 70.76 28.41 73.33 30.35 C 75.64 32.1 77.36 34.59 78.33 37.32 C 79.31 40.06 79.56 43.03 79.22 45.91 C 78.56 51.68 75.65 56.97 72.13 61.59 C 65.91 69.77 57.64 76.32 48.44 80.9 C 47.49 81.37 46.54 81.82 45.58 82.24 C 43.58 80.49 41.86 78.41 40.55 76.1 C 37.82 71.26 36.92 65.51 37.45 59.98 C 37.98 54.45 39.88 49.11 42.43 44.18 C 45.38 38.45 49.41 33.03 55.06 29.92 C 57.88 28.36 61.07 27.42 64.29 27.43 Z M 109.42 57.86 C 109.69 59.87 109.83 61.92 109.83 64 C 109.83 89.31 89.31 109.83 64 109.83 C 49.78 109.83 37.08 103.36 28.67 93.2 C 33.86 92.02 38.93 90.33 43.8 88.18 C 45.92 89.8 48.27 91.13 50.77 92.08 C 57.96 94.84 66.13 94.44 73.41 91.92 C 80.68 89.4 87.14 84.88 92.76 79.62 C 99.47 73.35 105.12 65.97 109.42 57.86 Z" fill="white"/>
</svg>