<?xml version="1.0" encoding="utf-8"?>
<svg viewBox="0 0 128 128" xmlns="http://www.w3.org/2000/svg">
  <g fill="white">
    <path d="M 104.37 91.93 C 102.85 95.42 101.06 98.64 98.99 101.6 C 96.16 105.63 93.85 108.42 92.07 109.97 C 89.3 112.51 86.34 113.81 83.16 113.89 C 80.89 113.89 78.14 113.24 74.94 111.92 C 71.73 110.62 68.79 109.97 66.09 109.97 C 63.26 109.97 60.23 110.62 56.99 111.92 C 53.74 113.24 51.12 113.92 49.12 113.99 C 46.08 114.12 43.05 112.78 40.02 109.97 C 38.09 108.28 35.67 105.39 32.78 101.3 C 29.67 96.93 27.12 91.86 25.12 86.09 C 22.97 79.84 21.9 73.8 21.9 67.95 C 21.9 61.25 23.35 55.47 26.25 50.63 C 28.53 46.74 31.56 43.67 35.36 41.41 C 39.15 39.16 43.25 38.01 47.67 37.94 C 50.09 37.94 53.26 38.69 57.19 40.16 C 61.12 41.63 63.64 42.38 64.75 42.38 C 65.57 42.38 68.38 41.5 73.12 39.76 C 77.61 38.14 81.4 37.48 84.51 37.74 C 92.92 38.42 99.24 41.73 103.45 47.71 C 95.92 52.27 92.2 58.65 92.27 66.85 C 92.34 73.23 94.66 78.54 99.21 82.75 C 101.27 84.71 103.57 86.22 106.13 87.3 C 105.58 88.91 104.99 90.45 104.37 91.93 Z"/>
    <path d="M 85.07 16 C 85.07 21 83.24 25.67 79.6 29.99 C 75.21 35.13 69.89 38.1 64.13 37.63 C 64.05 37.03 64.01 36.4 64.01 35.74 C 64.01 30.94 66.1 25.8 69.81 21.6 C 71.67 19.47 74.02 17.7 76.88 16.29 C 79.73 14.9 82.43 14.13 84.97 14 C 85.04 14.67 85.07 15.34 85.07 16 Z"/>
  </g>
</svg>