<svg xmlns="http://www.w3.org/2000/svg" viewBox="0 0 100 100">
  <g fill="white">
    <path d="M 90.37 77.93
             C 88.85 81.42, 87.06 84.64, 84.99 87.60
             C 82.16 91.63, 79.85 94.42, 78.07 95.97
             C 75.30 98.51, 72.34 99.81, 69.16 99.89
             C 66.89 99.89, 64.14 99.24, 60.94 97.92
             C 57.73 96.62, 54.79 95.97, 52.09 95.97
             C 49.26 95.97, 46.23 96.62, 42.99 97.92
             C 39.74 99.24, 37.12 99.92, 35.12 99.99
             C 32.08 100.12, 29.05 98.78, 26.02 95.97
             C 24.09 94.28, 21.67 91.39, 18.78 87.30
             C 15.67 82.93, 13.12 77.86, 11.12 72.09
             C 8.97 65.84, 7.9 59.80, 7.90 53.95
             C 7.90 47.25, 9.35 41.47, 12.25 36.63
             C 14.53 32.74, 17.56 29.67, 21.36 27.41
             C 25.15 25.16, 29.25 24.01, 33.67 23.94
             C 36.09 23.94, 39.26 24.69, 43.19 26.16
             C 47.12 27.63, 49.64 28.38, 50.75 28.38
             C 51.57 28.38, 54.38 27.50, 59.12 25.76
             C 63.61 24.14, 67.40 23.48, 70.51 23.74
             C 78.92 24.42, 85.24 27.73, 89.45 33.71
             C 81.92 38.27, 78.2 44.65, 78.27 52.85
             C 78.34 59.23, 80.66 64.54, 85.21 68.75
             C 87.27 70.71, 89.57 72.22, 92.13 73.30
             C 91.58 74.91, 90.99 76.45, 90.37 77.93 Z" />
    <path d="M 71.07 2
             C 71.07 7, 69.24 11.67, 65.60 15.99
             C 61.21 21.13, 55.89 24.10, 50.13 23.63
             C 50.05 23.03, 50.01 22.40, 50.01 21.74
             C 50.01 16.94, 52.10 11.80, 55.81 7.60
             C 57.67 5.47, 60.022 3.70, 62.88 2.29
             C 65.73 0.9, 68.43 0.13, 70.97 0
             C 71.04 0.67, 71.07 1.34, 71.07 2 Z" />
  </g>
</svg>
