<?xml version="1.0" encoding="utf-8"?>
<svg viewBox="0 0 100 100" xmlns="http://www.w3.org/2000/svg">
  <g fill="white">
    <path d="M 74.97 67.26 C 74.03 69.42 72.92 71.41 71.64 73.24 C 69.89 75.73 68.47 77.45 67.37 78.41 C 65.65 79.98 63.82 80.78 61.86 80.83 C 60.46 80.83 58.76 80.43 56.78 79.62 C 54.8 78.81 52.98 78.41 51.31 78.41 C 49.56 78.41 47.69 78.81 45.69 79.62 C 43.68 80.43 42.06 80.85 40.82 80.89 C 38.94 80.98 37.07 80.15 35.2 78.41 C 34.01 77.37 32.51 75.58 30.72 73.05 C 28.8 70.35 27.23 67.22 25.99 63.65 C 24.66 59.79 24 56.06 24 52.44 C 24 48.3 24.9 44.73 26.69 41.74 C 28.1 39.33 29.97 37.44 32.32 36.04 C 34.66 34.65 37.19 33.94 39.93 33.9 C 41.42 33.9 43.38 34.36 45.81 35.27 C 48.24 36.18 49.8 36.64 50.48 36.64 C 50.99 36.64 52.73 36.1 55.65 35.02 C 58.43 34.02 60.77 33.61 62.69 33.77 C 67.89 34.19 71.8 36.24 74.4 39.93 C 69.74 42.75 67.45 46.69 67.49 51.76 C 67.53 55.7 68.97 58.99 71.78 61.59 C 73.05 62.8 74.47 63.73 76.05 64.4 C 75.71 65.4 75.35 66.35 74.97 67.26 Z"/>
    <path d="M 63.04 20.34 C 63.04 23.43 61.91 26.31 59.66 28.98 C 56.95 32.16 53.66 33.99 50.1 33.7 C 50.05 33.33 50.02 32.94 50.02 32.54 C 50.02 29.57 51.32 26.39 53.61 23.8 C 54.76 22.48 56.21 21.39 57.98 20.52 C 59.74 19.66 61.41 19.18 62.98 19.1 C 63.02 19.51 63.04 19.93 63.04 20.34 Z"/>
  </g>
</svg>