<svg xmlns="http://www.w3.org/2000/svg" viewBox="0 0 100 100">
  <g fill="white">
    <path d="M 50 0
             C 39.53 0.02 29.33 3.33 20.85 9.46 L 32.2 20.81
             C 37.56 17.53 43.72 15.79 50 15.78
             C 68.9 15.78 84.22 31.1 84.22 50
             C 84.2 56.28 82.46 62.43 79.18 67.79 L 90.56 79.17
             C 96.68 70.67 99.99 60.47 100 50
             C 100 22.39 77.62 0 50 0 L 50 0 Z"/>
    <path d="M 79.16 90.54 L 67.8 79.19
             C 62.44 82.47 56.28 84.21 50 84.22
             C 31.1 84.22 15.78 68.9 15.78 50
             C 15.8 43.72 17.54 37.57 20.82 32.21 L 9.45 20.83
             C 3.32 29.33 0.02 39.53 0 50
             C 0 77.61 22.39 100 50 100
             C 60.47 99.98 70.67 96.67 79.16 90.54 L 79.16 90.54 Z"/>
    <circle cx="50" cy="50" r="15.92"/>
  </g>
</svg>
