<?xml version="1.0" encoding="utf-8"?>
<svg viewBox="0 0 128 128" xmlns="http://www.w3.org/2000/svg">
  <g fill="white">
    <path d="M 64 14 C 53.53 14.02 43.33 17.33 34.85 23.46 L 46.2 34.81 C 51.56 31.53 57.72 29.79 64 29.78 C 82.9 29.78 98.22 45.1 98.22 64 C 98.2 70.28 96.46 76.43 93.18 81.79 L 104.56 93.17 C 110.68 84.67 113.99 74.47 114 64 C 114 36.39 91.62 14 64 14 L 64 14 Z"/>
    <path d="M 93.16 104.54 L 81.8 93.19 C 76.44 96.47 70.28 98.21 64 98.22 C 45.1 98.22 29.78 82.9 29.78 64 C 29.8 57.72 31.54 51.57 34.82 46.21 L 23.45 34.83 C 17.32 43.33 14.02 53.53 14 64 C 14 91.61 36.39 114 64 114 C 74.47 113.98 84.67 110.67 93.16 104.54 L 93.16 104.54 Z"/>
    <circle cx="64" cy="64" r="15.92"/>
  </g>
</svg>