<?xml version="1.0" encoding="utf-8"?>
<svg viewBox="0 0 100 100" xmlns="http://www.w3.org/2000/svg">
  <g fill="white">
    <path d="M 50 19.1 C 43.53 19.11 37.23 21.16 31.99 24.95 L 39 31.96 C 42.31 29.93 46.12 28.86 50 28.85 C 61.68 28.85 71.15 38.32 71.15 50 C 71.14 53.88 70.06 57.68 68.03 60.99 L 75.07 68.03 C 78.85 62.77 80.89 56.47 80.9 50 C 80.9 32.94 67.07 19.1 50 19.1 L 50 19.1 Z"/>
    <path d="M 68.02 75.05 L 61 68.04 C 57.69 70.07 53.88 71.14 50 71.15 C 38.32 71.15 28.85 61.68 28.85 50 C 28.86 46.12 29.94 42.32 31.97 39.01 L 24.94 31.97 C 21.15 37.23 19.11 43.53 19.1 50 C 19.1 67.06 32.94 80.9 50 80.9 C 56.47 80.89 62.77 78.84 68.02 75.05 L 68.02 75.05 Z"/>
    <circle cx="50" cy="50" r="9.84"/>
  </g>
</svg>