<?xml version="1.0" encoding="utf-8"?>
<svg viewBox="0 0 100 100" xmlns="http://www.w3.org/2000/svg">
  <g fill="white">
    <path d="M 80.9 30.22 C 68.92 35.17 63.16 32.39 57.97 28.89 L 52.06 49.39 C 57.25 52.9 63.51 55.79 75 50.65 L 80.9 30.22 Z"/>
    <path d="M 41.97 71.42 C 36.76 67.92 31.11 65.04 19.1 70 L 24.98 49.47 C 36.98 44.5 42.76 47.32 47.95 50.84 L 41.97 71.42 Z"/>
    <path d="M 48.95 47.13 C 45.82 45.02 42.45 43.05 37.66 43.02 C 34.51 42.99 30.76 43.89 25.98 45.86 L 31.89 25.38 C 43.89 20.42 49.66 23.23 54.85 26.75 L 48.95 47.13 Z"/>
    <path d="M 51.07 52.81 C 56.27 56.31 62.03 59.1 74.03 54.14 L 68.11 74.55 C 56.12 79.51 50.36 76.7 45.17 73.19 L 51.07 52.81 Z"/>
  </g>
</svg>