<?xml version="1.0" encoding="utf-8"?>
<svg viewBox="0 0 128 128" xmlns="http://www.w3.org/2000/svg">
  <g fill="white">
    <path d="M 114 32.06 C 94.62 40.08 85.3 35.57 76.9 29.92 L 67.34 63.08 C 75.73 68.77 85.86 73.44 104.46 65.12 L 114 32.06 Z"/>
    <path d="M 51 98.73 C 42.58 93.07 33.43 88.41 14 96.44 L 23.51 63.22 C 42.94 55.18 52.28 59.73 60.69 65.43 L 51 98.73 Z"/>
    <path d="M 62.3 59.43 C 57.23 56.02 51.78 52.83 44.04 52.77 C 38.94 52.73 32.86 54.18 25.14 57.38 L 34.7 24.24 C 54.12 16.21 63.45 20.75 71.85 26.45 L 62.3 59.43 Z"/>
    <path d="M 65.73 68.62 C 74.14 74.28 83.47 78.79 102.88 70.77 L 93.31 103.8 C 73.91 111.83 64.59 107.28 56.19 101.59 L 65.73 68.62 Z"/>
  </g>
</svg>