<svg xmlns="http://www.w3.org/2000/svg" viewBox="0 0 100 100">
  <g fill="white">
    <path d="M 100 18.064
             C 80.62 26.08, 71.30 21.57, 62.90 15.92, L 53.34 49.08
             C 61.73 54.77, 71.86 59.44, 90.46 51.12, L 100 18.06 Z"/>
    <path d="M 37.00 84.73
             C 28.58 79.07, 19.43 74.41, 0 82.44 L 9.51 49.22
             C 28.94 41.18, 38.28 45.73, 46.69 51.43 L 37.00 84.73 Z"/>
    <path d="M 48.30 45.43
             C 43.23 42.02, 37.78 38.83, 30.04 38.77
             C 24.94 38.73, 18.86 40.18, 11.14 43.38 L 20.70 10.24
             C 40.12  2.21, 49.45  6.75, 57.85 12.45 L 48.30 45.43 Z"/>
    <path d="M 51.73 54.62
             C 60.14 60.28, 69.47 64.79, 88.88 56.77 L 79.31 89.80
             C 59.91 97.83, 50.59 93.28, 42.19 87.59 L 51.73 54.62 Z"/>
  </g>
</svg>
